<?xml version="1.0" encoding="utf-8"?>
<!-- Generator: Adobe Illustrator 22.0.0, SVG Export Plug-In . SVG Version: 6.00 Build 0)  -->
<svg version="1.1" xmlns="http://www.w3.org/2000/svg" xmlns:xlink="http://www.w3.org/1999/xlink" x="0px" y="0px"
	 viewBox="0 0 512 512" style="enable-background:new 0 0 512 512;" xml:space="preserve">
<style type="text/css">
	.st0{fill:#E1902B;}
	.st1{fill:#3D2A3D;}
	.st2{fill:#E7AD84;}
	.st3{fill:#2961A5;}
	.st4{fill:#FFD66C;}
	.st5{fill:#A18FA1;}
	.st6{fill:#DB4646;}
	.st7{fill:#78BEDE;}
	.st8{fill:#43B06D;}
	.st9{fill:#9EC853;}
	.st10{fill:#217D44;}
	.st11{fill:#DBDBDB;}
	.st12{fill:#FFFFFF;}
	.st13{fill:#C41E1E;}
	.st14{fill:#B9BDC2;}
	.st15{fill:#856685;}
	.st16{fill:#E8E8E8;}
	.st17{fill:#BDBDBD;}
	.st18{fill:#839797;}
	.st19{fill:#D9D9D9;}
	.st20{fill:#F0F0F0;}
	.st21{fill:#BFBFBF;}
	.st22{fill:#706470;}
	.st23{fill:#4B1E4C;}
	.st24{fill:#614F61;}
	.st25{fill:#A37352;}
	.st26{fill:#7A6C7A;}
	.st27{fill:#919191;}
	.st28{fill:#6E6E6E;}
	.st29{fill:#B8B8B8;}
	.st30{fill:#FF826E;}
	.st31{fill:#7D5737;}
	.st32{fill:#2E1B17;}
	.st33{fill:#483324;}
	.st34{fill:#9E9E9E;}
	.st35{fill:#7D6F7D;}
	.st36{fill:#6B4A6B;}
	.st37{fill:#4A80C2;}
	.st38{fill:#B34B0F;}
	.st39{fill:#FFC682;}
	.st40{clip-path:url(#SVGID_2_);fill:#DBDBDB;}
	.st41{fill:#FFDBC5;}
	.st42{fill:#E3E3E3;}
	.st43{clip-path:url(#SVGID_4_);}
	.st44{clip-path:url(#SVGID_6_);fill:#DBDBDB;}
	.st45{clip-path:url(#SVGID_8_);}
	.st46{fill:#E8B494;}
	.st47{fill:#F2D7C4;}
	.st48{fill:#5D5660;}
	.st49{fill:#3B2D3F;}
	.st50{fill:#756275;}
	.st51{fill:#E1622B;}
	.st52{fill:#F0E9E9;}
	.st53{fill:#4D917B;}
	.st54{fill:#C4C4C4;}
	.st55{fill:#14855A;}
	.st56{fill:#C21B1B;}
</style>
<g id="Layer_9">
	<path class="st8" d="M512,256c0,141.4-114.6,256-256,256C114.6,512,0,397.4,0,256C0,114.6,114.6,0,256,0C397.4,0,512,114.6,512,256
		z"/>
</g>
<g id="Layer_7">
	<g>
		<path class="st1" d="M282.1,323.4l70,70c11.4,11.4,29.7,11.4,41.1,0.1c11.4-11.4,11.3-29.7-0.1-41.1l-70-70L282.1,323.4z"/>
		
			<ellipse transform="matrix(0.265 -0.9642 0.9642 0.265 -54.4014 399.0735)" class="st1" cx="234.6" cy="235.2" rx="127.2" ry="127.2"/>
		<path class="st9" d="M306.9,162.9c39.9,39.9,39.9,104.6,0,144.6c-39.9,39.9-104.6,39.9-144.6,0c-39.9-39.9-39.9-104.6,0-144.6
			C202.2,123,266.9,123,306.9,162.9z"/>
		<g>
			<g>
				<path class="st36" d="M278,260.9c0,11.8-9.7,21.3-21.4,21.3l-44,0c-11.8,0-21.6-9.5-21.6-21.3v-0.1c0-11.8,10-20.8,21.8-20.8
					h43.7c11.8,0,21.6,9.1,21.6,20.8V260.9z"/>
				<path class="st36" d="M255.5,245c0,14.9-9.6,26.9-21.5,26.9c-11.9,0-21.5-12-21.5-26.9c0-14.9,9.6-26.9,21.5-26.9
					C245.9,218.2,255.5,230.2,255.5,245z"/>
				<g>
					<path class="st36" d="M272.6,202.5c0,9.2-7.4,16.6-16.6,16.6c-9.2,0-16.6-7.4-16.6-16.6c0-9.2,7.4-16.6,16.6-16.6
						C265.2,185.9,272.6,193.3,272.6,202.5z"/>
					<path class="st36" d="M228.6,202.5c0,9.2-7.4,16.6-16.6,16.6c-9.2,0-16.6-7.4-16.6-16.6c0-9.2,7.4-16.6,16.6-16.6
						C221.2,185.9,228.6,193.3,228.6,202.5z"/>
				</g>
				<g>
					<path class="st36" d="M196.9,231.1c0,7.7-6.2,13.9-13.9,13.9c-7.7,0-13.9-6.2-13.9-13.9c0-7.7,6.2-13.9,13.9-13.9
						C190.6,217.2,196.9,223.4,196.9,231.1z"/>
					<path class="st36" d="M299.1,231.1c0,7.7-6.2,13.9-13.9,13.9c-7.7,0-13.9-6.2-13.9-13.9c0-7.7,6.2-13.9,13.9-13.9
						C292.8,217.2,299.1,223.4,299.1,231.1z"/>
				</g>
			</g>
		</g>
	</g>
</g>
</svg>
